Patient4_TMGait_0pt8_01_left_16_EMG.mot
version=1
nRows=27
nColumns=33
inDegrees=no
endheader
time	1LAddLong	2LGlutMax	3LGlutMed	4LIliopsoas	5LSemiMemb	6LBicFemLong	7LRecFem	8LVastMed	9LVastLat	10LGasMed	11LTibAnt	12lTibPost	13LPeroneusLong	14LSol	15LExtDigLong	16LFlexDigLong	17RAddLong	18RGlutMax	19RGlutMed	20RIliopsoas	21RSemiMemb	22RBicFemLong	23RRecFem	24RVastMed	25RVastLat	26RGasMed	27RTibAnt	28RTibPost	29RPeroneusLong	30RSol	31RExtDigLong	32RFlexDigLong
17.517	0.000458	0.24674	0.19562	-0.004425	-0.09491	0.13763	0.15091	0.021515	-0.41382	-0.19501	0.019073	-0.055389	0.82916	-0.52902	-0.050659	-0.043793	-0.030212	-0.5127	0.050354	-0.087891	0.020294	-0.02121	0.74143	-0.097961	0.001221	0.010681	-0.86365	-0.004425	0.2182	-0.38956	0.003357	-0.008698
17.518	-0.006561	0.31235	0.16449	-0.018616	-0.086365	0.31281	0.20706	0.027466	-0.31754	-0.25574	0.006409	-0.04303	0.10208	-0.62515	-0.14252	-0.001678	-0.048065	-0.55832	-0.13657	-0.00412	-0.010223	0.010376	0.71503	-0.085449	0.001984	0.004272	-0.12833	-0.005646	0.054016	-0.27451	0.004272	-0.015106
17.519	0.002747	0.33646	0.04837	0.018005	-0.045319	0.45319	0.31052	0.021667	-0.16007	-0.19379	0.031738	-0.026093	-0.057068	-0.33615	0.038757	0.20844	-0.071869	-0.48981	-0.20584	0.059662	-0.018158	0.087738	0.67184	-0.045776	-0.005951	-0.003662	0.074463	-0.006409	-0.041962	-0.14084	-0.000305	-0.013275
17.52	-0.004578	0.49988	0.060577	-0.000305	0.009918	0.48767	0.35294	0.02655	-0.21637	-0.31265	0.058899	-0.019226	-0.78613	-0.059204	0.14847	0.023499	-0.049286	-0.47073	-0.22354	0.055237	-0.020142	0.075989	0.63248	-0.027771	0.010986	-0.001678	0.24719	-0.010071	-0.11856	-0.16022	-0.000916	-0.007324
17.521	-0.010071	0.6279	0.095978	-0.007629	-0.011292	0.39398	0.31342	0.015869	-0.28793	-0.36163	0.016479	-0.027161	0.19699	0.06073	0.066223	-0.076447	0.066986	-0.36224	-0.22797	0.023499	-0.036774	0.061035	0.62363	-0.033417	0.016785	-0.002289	0.57053	-0.007019	-0.12985	-0.0737	-0.002136	-0.011292
17.522	-0.013428	0.74295	-0.048676	0.011902	-0.036163	-0.077057	0.27405	-0.003204	-0.33783	-0.25971	-0.021973	-0.045471	0.38727	0.28519	0.004578	0.008087	0.12909	-0.32303	-0.26245	0.054779	-0.031128	0.13641	0.73944	-0.065613	-0.001678	0.005646	0.43839	-0.011444	-0.072327	-0.00061	-0.002747	-0.013123
17.523	-0.037537	0.84259	0.010986	0.014038	-0.000916	-0.38757	0.31647	-0.005646	-0.44983	-0.25833	-0.003357	-0.017242	-0.49194	0.50766	0.02655	0.051575	0.12604	-0.27786	-0.19913	0.12451	0.020447	0.037689	0.78903	-0.054779	0.00824	0.000153	-0.044861	-0.003357	0.028992	-0.04715	-0.001526	-0.021667
17.524	-0.11169	0.91019	0.15945	0.014496	-0.031433	-0.54459	0.29327	0.016632	-0.45975	-0.16388	-0.001068	-0.023041	-0.33096	0.53467	-0.05722	0.052185	0.11963	-0.20233	-0.12512	0.1474	-0.024414	-0.1561	0.87204	-0.095367	0.027618	0.004425	-1.1203	-0.002747	0.21881	-0.053558	-0.000458	-0.001678
17.525	-0.072632	0.99777	0.15686	0.010529	-0.041199	-0.56488	0.37125	0.003815	-0.42282	0.13351	0.000916	0.015106	-0.093842	0.29144	0.055542	0.029144	0.079346	-0.12131	-0.081329	0.10819	-0.088196	-0.065613	0.91126	-0.17624	-0.009918	0.001678	-0.68024	-0.001831	0.12436	-0.054169	-0.000916	-0.014191
17.526	-0.012665	1.0037	0.12817	0.015717	-0.09201	-0.50079	0.4155	0.021667	-0.39841	0.35416	0.016022	0.12604	-0.031738	-0.1532	0.015106	-0.032501	0.070953	-0.060577	-0.16068	0.018158	-0.13779	0.12894	0.95825	-0.17944	-0.033875	-0.006866	-0.49606	-0.003204	0.09491	-0.03418	0.000153	-0.011902
17.527	-0.000916	0.98846	0.14297	0.011749	-0.10284	-0.33661	0.35507	0.032806	-0.31952	0.082245	0.016632	0.063019	0.26627	-0.3537	0.007477	0.080566	0.033264	0.019836	-0.12054	-0.031281	-0.14633	0.062408	0.92422	-0.14496	-0.018768	-0.002747	-0.23834	0.000305	0.10239	0.025177	0.004272	-0.009918
17.528	0.006104	0.86639	0.041046	-0.007324	-0.11459	-0.13763	0.17258	0.037079	-0.26016	-0.26642	0.010529	0.031586	0.47272	-0.31906	0.016479	0.042267	-0.021057	0.064545	-0.17227	-0.16647	-0.17456	-0.038452	0.85617	-0.16083	-0.017242	0.000305	0.062714	-0.011444	0.036926	0.082245	0.003204	-0.015564
17.529	0.014343	0.73929	-0.19882	-0.013123	-0.11215	0.097656	0.050354	0.029297	-0.10193	-0.17914	-0.011139	0.068512	0.19394	-0.11932	-0.00885	-0.002136	-0.086212	0.10422	-0.31937	-0.16998	-0.16617	-0.088196	0.7428	-0.09903	-0.010376	-0.01236	0.36041	-0.007019	-0.17593	0.067291	0.002289	-0.010681
17.53	0.004425	0.58487	-0.3833	-0.005188	-0.082245	0.26428	-0.017853	0.00824	-0.057068	-0.13962	0.006256	-0.098419	-0.4155	-0.097961	-0.06134	0.006256	-0.10147	0.026398	-0.42511	-0.028076	-0.12222	-0.13702	0.77972	-0.13779	-0.007629	-0.009308	0.12085	-0.005798	-0.21622	0.10742	-0.002136	-0.00824
17.531	0.010681	0.50751	-0.56473	-0.007324	0.050812	0.36041	0.084229	-0.006866	-0.072937	-0.18768	0.033875	0.049438	0.12528	-0.40619	-0.067749	-0.015106	-0.09964	0.06424	-0.32425	0.095367	-0.068359	-0.13367	0.76096	-0.15488	0.000305	-0.009613	0.046692	-0.011444	-0.17258	0.22308	0.000153	-0.010681
17.532	0.023956	0.43701	-0.6247	-0.001068	0.013885	0.49271	0.063019	-0.029449	-0.10315	-0.034943	0.008392	0.09079	0.82733	-0.42358	-0.020447	-0.008545	-0.057983	0.1088	-0.22751	0.12955	-0.016937	-0.025024	0.7486	-0.16037	-0.018921	-0.006409	-0.23056	-0.010986	0.031738	0.10193	-0.000916	-0.014954
17.533	0.005493	0.41809	-0.42267	-0.001526	-0.12299	0.46768	0.10849	-0.016022	-0.1033	-0.00885	-0.024872	0.09079	0.90927	-0.019226	0.003967	-0.022125	0.01297	0.12726	-0.19119	0.1091	-0.062103	0.000305	0.71976	-0.17746	-0.021667	0.011597	-0.34592	-0.010071	0.26504	-0.13321	-0.000458	-0.003052
17.534	-0.005035	0.45303	-0.007172	0.001373	-0.11963	0.30624	0.15274	-0.003815	0.037689	-0.028992	0.014343	0.061798	-0.83679	0.39764	0.077209	-0.012207	0.017242	0.11932	-0.24536	0.072479	-0.049286	0.046997	0.65872	-0.098724	0.010376	0.010376	0.10269	-0.009155	0.21622	-0.1297	-0.002136	-0.011902
17.535	0.018463	0.3569	0.14725	-0.007172	0.049591	0.19684	0.13947	-0.007172	0.17532	-0.065613	0.01236	0.079803	-0.76904	0.31738	-0.087738	-0.012817	0.014343	0.10513	-0.457	0.1535	0.067291	0.031128	0.57816	-0.011444	0.037689	-0.003357	0.016937	-0.010986	0.057831	0.045166	0.004883	-0.02243
17.536	0.027313	0.35355	0.14221	0.005951	0.084686	-0.36209	-0.014954	-0.003662	0.25696	-0.14221	0.016479	0.093079	0.053253	0.24262	-0.058746	-0.012665	0.019836	0.13153	-0.64636	0.19806	0.14557	0.047607	0.53741	0.018005	0.046539	-0.001373	-0.22354	-0.009613	0.091858	0.13534	0.000305	-0.018768
17.537	0.038757	0.53619	0.17303	0.014648	0.013733	-0.634	0.002136	-0.007172	0.23285	0.078888	0.007172	0.1062	0.12848	0.31784	0.007019	-0.003357	0.009613	0.089569	-0.68298	0.14343	0.089722	0.048981	0.5249	0.032654	0.043182	0.00061	-0.52551	-0.006104	0.16724	0.061188	0.001221	-0.0177
17.538	0.053406	0.70679	0.23193	0.012512	-0.052795	-0.28458	-0.015717	-0.020905	0.097198	0.42129	0.003815	0.11017	0.21286	0.27985	0.036621	-0.002441	0.043182	0.094452	-0.55893	0.034332	0.070648	-0.037537	0.54398	0.070038	0.023804	0.000153	-0.6192	-0.010986	0.17593	0.071106	-0.000305	-0.020447
17.539	0.049591	0.70633	0.11017	0.019684	-0.045929	-0.13992	-0.17471	-0.007629	0.023651	0.27023	0.023651	0.10666	-0.24765	0.23117	0.007477	-0.009003	0.076141	0.18707	-0.53696	-0.018768	0.068207	-0.023346	0.59448	0.16434	0.029602	-0.002441	-0.45227	-0.009918	0.089417	0.088806	0.001831	-0.029755
17.54	0.03952	0.77499	0.017395	-0.004578	0.073547	-0.10834	-0.17654	0.006256	-0.075073	0.17151	0.037842	0.095367	0.30426	0.023651	-0.050964	-0.039368	0.050812	0.21133	-0.43869	-0.066223	0.063629	0.028839	0.61386	0.13519	0.018463	-0.001221	-0.28595	-0.008392	0.042877	0.059814	-0.002441	-0.016632
17.541	0.025482	0.84183	-0.068665	-0.003357	0.06012	-0.33157	-0.15625	-0.00473	-0.28442	0.012817	0.028076	0.089111	0.59586	0.066376	-0.00824	-0.033722	-0.005798	0.29953	-0.45685	0.12116	0.10803	0.03006	0.63568	0.11993	-0.003204	-0.002441	-0.13672	-0.009918	0.001068	0.009155	-0.000916	-0.029755
17.542	0.017548	0.99731	-0.059204	0.003357	-0.013428	-0.17777	-0.25269	-0.013123	-0.28244	-0.19165	0.029144	0.079651	-0.37674	0.042267	0.054016	-0.028229	-0.087128	0.34805	-0.51193	-0.056458	0.086212	-0.067444	0.69595	0.084229	-0.017548	-0.005951	0.14938	-0.005188	-0.13184	0.011597	0.00412	-0.019836
17.543	0.009308	1.0513	-0.15106	-0.000305	-0.058136	-0.010376	-0.24063	-0.022125	-0.4042	-0.3157	0.023651	0.066376	-0.88409	-0.06897	-0.089569	-0.009918	-0.10696	0.29373	-0.54581	-0.25162	0.026093	-0.12207	0.68649	0.065918	-0.033417	-0.009613	0.7727	-0.010071	-0.18478	-0.013885	-0.005341	-0.017395
